<svg width="148" height="34" viewBox="0 0 148 34" fill="none" xmlns="http://www.w3.org/2000/svg">
<path d="M37.225 24.325C36.0083 24.325 34.9167 24.1417 33.95 23.775C32.9833 23.4083 32.1667 22.875 31.5 22.175C30.8333 21.4583 30.325 20.5833 29.975 19.55C29.625 18.5 29.45 17.3 29.45 15.95C29.45 14.5833 29.625 13.3583 29.975 12.275C30.3417 11.1917 30.8583 10.275 31.525 9.525C32.1917 8.75833 32.9917 8.175 33.925 7.775C34.8583 7.375 35.9 7.175 37.05 7.175C37.9333 7.175 38.75 7.3 39.5 7.55C40.25 7.78333 40.9 8.125 41.45 8.575C42 9.025 42.425 9.575 42.725 10.225C43.0417 10.875 43.2083 11.6083 43.225 12.425L40.65 13.075C40.6667 12.275 40.5 11.6167 40.15 11.1C39.8167 10.5667 39.3667 10.1667 38.8 9.9C38.2333 9.63333 37.625 9.5 36.975 9.5C36.375 9.5 35.7917 9.61667 35.225 9.85C34.6583 10.0833 34.15 10.4583 33.7 10.975C33.2667 11.475 32.9167 12.125 32.65 12.925C32.4 13.725 32.275 14.6917 32.275 15.825C32.275 17.275 32.4833 18.4583 32.9 19.375C33.3333 20.275 33.925 20.9417 34.675 21.375C35.4417 21.7917 36.3167 22 37.3 22C38.2833 22 39.0667 21.8083 39.65 21.425C40.2333 21.0417 40.6583 20.5333 40.925 19.9C41.2083 19.25 41.3667 18.5167 41.4 17.7L43.825 18.125C43.8083 18.975 43.675 19.7833 43.425 20.55C43.175 21.3 42.7833 21.9583 42.25 22.525C41.7333 23.0917 41.0583 23.5333 40.225 23.85C39.3917 24.1667 38.3917 24.325 37.225 24.325ZM51.798 24.325C50.548 24.325 49.4397 24.0583 48.473 23.525C47.5064 22.9917 46.748 22.2167 46.198 21.2C45.6647 20.1833 45.398 18.9333 45.398 17.45C45.398 15.9333 45.6814 14.675 46.248 13.675C46.8147 12.675 47.573 11.925 48.523 11.425C49.4897 10.925 50.573 10.675 51.773 10.675C53.0064 10.675 54.1064 10.9333 55.073 11.45C56.0397 11.9667 56.798 12.7333 57.348 13.75C57.9147 14.7667 58.198 16.0333 58.198 17.55C58.198 19.05 57.9147 20.3083 57.348 21.325C56.798 22.325 56.0397 23.075 55.073 23.575C54.1064 24.075 53.0147 24.325 51.798 24.325ZM51.898 22.175C52.648 22.175 53.2897 22 53.823 21.65C54.3564 21.3 54.7647 20.7833 55.048 20.1C55.3314 19.4167 55.473 18.6 55.473 17.65C55.473 16.6667 55.323 15.825 55.023 15.125C54.723 14.4083 54.2897 13.8583 53.723 13.475C53.173 13.0917 52.498 12.9 51.698 12.9C50.9814 12.9 50.348 13.075 49.798 13.425C49.2647 13.7583 48.8564 14.2667 48.573 14.95C48.2897 15.6167 48.148 16.4333 48.148 17.4C48.148 18.9167 48.4814 20.0917 49.148 20.925C49.8147 21.7583 50.7314 22.175 51.898 22.175ZM60.7109 24V17.225V11H63.0609L62.9359 15.5H63.3609C63.5109 14.4833 63.7443 13.6167 64.0609 12.9C64.3776 12.1833 64.8109 11.6417 65.3609 11.275C65.9109 10.8917 66.5943 10.7 67.4109 10.7C67.5776 10.7 67.7609 10.7083 67.9609 10.725C68.1609 10.7417 68.3859 10.7917 68.6359 10.875L68.5109 13.725C68.2609 13.625 68.0026 13.5583 67.7359 13.525C67.4693 13.475 67.2276 13.45 67.0109 13.45C66.3443 13.45 65.7776 13.6417 65.3109 14.025C64.8443 14.3917 64.4526 14.9083 64.1359 15.575C63.8359 16.225 63.6026 16.9833 63.4359 17.85V24H60.7109ZM75.424 24.275C74.1407 24.275 73.1824 23.925 72.549 23.225C71.9324 22.525 71.624 21.45 71.624 20V13.225H69.699L69.749 11H70.999C71.4324 11 71.7574 10.9333 71.974 10.8C72.1907 10.65 72.324 10.3917 72.374 10.025L72.624 8.1H74.249V11H77.824V13.275H74.249V19.925C74.249 20.575 74.399 21.0417 74.699 21.325C74.999 21.6083 75.4407 21.75 76.024 21.75C76.3407 21.75 76.6574 21.7167 76.974 21.65C77.3074 21.5667 77.624 21.4167 77.924 21.2V23.825C77.424 23.9917 76.9657 24.1083 76.549 24.175C76.1324 24.2417 75.7574 24.275 75.424 24.275ZM85.724 24.325C84.6907 24.325 83.774 24.175 82.974 23.875C82.174 23.5583 81.499 23.1167 80.949 22.55C80.399 21.9667 79.9824 21.275 79.699 20.475C79.4157 19.6583 79.274 18.7417 79.274 17.725C79.274 16.7083 79.4157 15.775 79.699 14.925C79.9824 14.0583 80.3824 13.3083 80.899 12.675C81.4324 12.0417 82.0824 11.55 82.849 11.2C83.6324 10.85 84.5157 10.675 85.499 10.675C86.4157 10.675 87.2324 10.825 87.949 11.125C88.6824 11.425 89.299 11.8833 89.799 12.5C90.299 13.1 90.674 13.8583 90.924 14.775C91.174 15.675 91.2657 16.7333 91.199 17.95L81.024 18.025V16.325L89.599 16.25L88.649 17.3C88.749 16.3 88.6657 15.475 88.399 14.825C88.1324 14.175 87.749 13.6917 87.249 13.375C86.749 13.0583 86.174 12.9 85.524 12.9C84.7907 12.9 84.149 13.0917 83.599 13.475C83.0657 13.8417 82.649 14.3833 82.349 15.1C82.049 15.8167 81.899 16.675 81.899 17.675C81.899 19.175 82.2324 20.3083 82.899 21.075C83.5657 21.825 84.5157 22.2 85.749 22.2C86.2657 22.2 86.7074 22.1417 87.074 22.025C87.4407 21.8917 87.749 21.725 87.999 21.525C88.249 21.3083 88.449 21.0583 88.599 20.775C88.7657 20.475 88.899 20.1667 88.999 19.85L91.374 20.4C91.224 21.0167 90.9907 21.5667 90.674 22.05C90.374 22.5167 89.9907 22.925 89.524 23.275C89.0574 23.6083 88.5074 23.8667 87.874 24.05C87.2574 24.2333 86.5407 24.325 85.724 24.325ZM92.1139 24L96.4639 17.5L92.0889 11H95.2389L98.0639 16.125H98.4389L101.214 11H104.389L100.014 17.5L104.464 24H101.289L98.4139 18.85H98.0639L95.2639 24H92.1139ZM108.143 19.075V16.85H112.118C113.568 16.85 114.652 16.5667 115.368 16C116.102 15.4333 116.468 14.5 116.468 13.2C116.468 12.0333 116.127 11.1583 115.443 10.575C114.777 9.99167 113.743 9.7 112.343 9.7H108.143V7.5H112.393C113.477 7.5 114.435 7.625 115.268 7.875C116.118 8.125 116.835 8.49167 117.418 8.975C118.018 9.45833 118.468 10.0667 118.768 10.8C119.085 11.5167 119.243 12.35 119.243 13.3C119.243 14.55 118.96 15.6083 118.393 16.475C117.827 17.325 116.985 17.975 115.868 18.425C114.768 18.8583 113.402 19.075 111.768 19.075H108.143ZM106.493 24V7.5H109.218V24H106.493ZM124.395 24.325C123.678 24.325 123.036 24.1917 122.47 23.925C121.903 23.6417 121.453 23.225 121.12 22.675C120.803 22.125 120.645 21.4417 120.645 20.625C120.645 19.975 120.761 19.4167 120.995 18.95C121.245 18.4667 121.611 18.0667 122.095 17.75C122.595 17.4167 123.228 17.15 123.995 16.95C124.761 16.7333 125.67 16.55 126.72 16.4C127.303 16.3167 127.778 16.2333 128.145 16.15C128.528 16.0667 128.803 15.9333 128.97 15.75C129.153 15.5667 129.245 15.2917 129.245 14.925C129.245 14.3583 129.045 13.875 128.645 13.475C128.261 13.0583 127.636 12.85 126.77 12.85C126.286 12.85 125.803 12.9333 125.32 13.1C124.853 13.2667 124.445 13.5417 124.095 13.925C123.761 14.2917 123.536 14.7917 123.42 15.425L120.97 14.65C121.12 14.0167 121.361 13.4583 121.695 12.975C122.028 12.475 122.445 12.0583 122.945 11.725C123.445 11.375 124.02 11.1167 124.67 10.95C125.336 10.7667 126.061 10.675 126.845 10.675C127.995 10.675 128.945 10.8667 129.695 11.25C130.445 11.6333 131.003 12.225 131.37 13.025C131.753 13.8083 131.945 14.8167 131.945 16.05V18.7C131.945 19.25 131.953 19.8333 131.97 20.45C132.003 21.05 132.036 21.6583 132.07 22.275C132.12 22.875 132.178 23.45 132.245 24H129.77C129.72 23.5 129.67 22.9833 129.62 22.45C129.586 21.9167 129.553 21.375 129.52 20.825H129.145C128.911 21.4583 128.578 22.0417 128.145 22.575C127.728 23.1083 127.203 23.5333 126.57 23.85C125.953 24.1667 125.228 24.325 124.395 24.325ZM125.345 22.225C125.695 22.225 126.045 22.1667 126.395 22.05C126.761 21.9333 127.12 21.7583 127.47 21.525C127.836 21.275 128.17 20.9583 128.47 20.575C128.786 20.1917 129.061 19.7333 129.295 19.2L129.27 16.85L129.92 16.975C129.636 17.225 129.278 17.4167 128.845 17.55C128.428 17.6833 127.97 17.7917 127.47 17.875C126.97 17.9417 126.47 18.025 125.97 18.125C125.486 18.2083 125.036 18.3333 124.62 18.5C124.22 18.65 123.895 18.8667 123.645 19.15C123.411 19.4333 123.295 19.825 123.295 20.325C123.295 20.9417 123.486 21.4167 123.87 21.75C124.253 22.0667 124.745 22.225 125.345 22.225ZM139.683 28.4C139.016 28.4 138.341 28.325 137.658 28.175C136.991 28.0417 136.374 27.825 135.808 27.525C135.241 27.2417 134.766 26.8667 134.383 26.4L135.483 24.25C135.916 24.8167 136.499 25.2417 137.233 25.525C137.966 25.825 138.741 25.975 139.558 25.975C140.491 25.975 141.258 25.775 141.858 25.375C142.474 24.9917 142.941 24.3917 143.258 23.575C143.574 22.7583 143.741 21.7333 143.758 20.5L143.983 18H143.508C143.324 19.1833 143.033 20.1333 142.633 20.85C142.249 21.5667 141.774 22.0833 141.208 22.4C140.641 22.7167 139.974 22.875 139.208 22.875C138.258 22.875 137.458 22.6417 136.808 22.175C136.174 21.6917 135.691 20.9833 135.358 20.05C135.041 19.1 134.883 17.9417 134.883 16.575V11H137.583V15.975C137.583 17.5583 137.791 18.7167 138.208 19.45C138.641 20.1833 139.283 20.55 140.133 20.55C140.599 20.55 141.016 20.4333 141.383 20.2C141.749 19.9667 142.066 19.625 142.333 19.175C142.616 18.7083 142.833 18.1333 142.983 17.45C143.149 16.7667 143.249 15.975 143.283 15.075V11H146.008V20.625C146.008 21.6583 145.924 22.5917 145.758 23.425C145.591 24.2417 145.333 24.9583 144.983 25.575C144.649 26.2083 144.233 26.7333 143.733 27.15C143.233 27.5833 142.641 27.9 141.958 28.1C141.291 28.3 140.533 28.4 139.683 28.4Z" fill="white"/>
<path fill-rule="evenodd" clip-rule="evenodd" d="M1.61849 16.1549C2.53017 16.7773 3.58983 17.5021 3.97334 17.7653C4.35685 18.0287 4.70939 18.2502 4.75688 18.2575C4.80433 18.2647 5.11707 18.0901 5.45177 17.8693C7.58091 16.4654 10.6743 14.7862 13.091 13.7226C15.1394 12.8211 17.9161 11.8202 19.8433 11.2885L20.5988 11.08L20.7047 9.91782C21.0209 6.44959 21.1168 5.13923 21.0534 5.15222C21.0147 5.16013 20.4233 5.31522 19.7393 5.49672C14.128 6.98584 8.47784 9.47265 3.37474 12.6992C2.54809 13.2218 0.136013 14.8553 0.00395079 14.9819C-0.0196981 15.0046 0.706815 15.5325 1.61849 16.1549Z" fill="url(#paint0_linear_6782_561)"/>
<path fill-rule="evenodd" clip-rule="evenodd" d="M1.686 26.3854C2.59768 27.0078 3.65734 27.7326 4.04086 27.9959C4.42436 28.2593 4.77691 28.4807 4.8244 28.488C4.87184 28.4952 5.18458 28.3206 5.51929 28.0999C7.64842 26.6959 10.7418 25.0167 13.1585 23.9532C15.207 23.0516 17.9836 22.0507 19.9108 21.519L20.6663 21.3106L20.7722 20.1484C21.0884 16.6801 21.1843 15.3698 21.121 15.3828C21.0822 15.3907 20.4908 15.5457 19.8068 15.7273C14.1955 17.2164 8.54535 19.7032 3.44225 22.9297C2.6156 23.4523 0.203526 25.0858 0.0714633 25.2124C0.0478144 25.2351 0.774327 25.763 1.686 26.3854Z" fill="url(#paint1_linear_6782_561)"/>
<defs>
<linearGradient id="paint0_linear_6782_561" x1="8.29995" y1="22.8701" x2="2.65622" y2="3.85038" gradientUnits="userSpaceOnUse">
<stop stop-color="#42307D"/>
<stop offset="1" stop-color="#7F56D9"/>
</linearGradient>
<linearGradient id="paint1_linear_6782_561" x1="8.36746" y1="33.1007" x2="2.72373" y2="14.0809" gradientUnits="userSpaceOnUse">
<stop stop-color="#42307D"/>
<stop offset="1" stop-color="#7F56D9"/>
</linearGradient>
</defs>
</svg>
